Coordinates
version=1
nRows=17
nColumns=40
inDegrees=yes

Units are S.I. units (second, meters, Newtons, ...)
Angles are in degrees.

endheader
time	pelvis_tilt	pelvis_list	pelvis_rotation	pelvis_tx	pelvis_ty	pelvis_tz	hip_flexion_r	hip_adduction_r	hip_rotation_r	knee_angle_r	knee_angle_r_beta	ankle_angle_r	subtalar_angle_r	mtp_angle_r	hip_flexion_l	hip_adduction_l	hip_rotation_l	knee_angle_l	knee_angle_l_beta	ankle_angle_l	subtalar_angle_l	mtp_angle_l	lumbar_extension	lumbar_bending	lumbar_rotation	arm_flex_r	arm_add_r	arm_rot_r	elbow_flex_r	pro_sup_r	wrist_flex_r	wrist_dev_r	arm_flex_l	arm_add_l	arm_rot_l	elbow_flex_l	pro_sup_l	wrist_flex_l	wrist_dev_l
      0.53000000	     -2.82032593	     -3.74119954	      8.72154394	     -0.17776030	      0.87749649	      1.53710990	     23.72191016	      0.07747709	    -14.84259929	    -30.13343484	     -0.52592765	      5.04721411	     -7.60166195	      7.04496643	     11.59613304	      7.69616158	      0.04508319	    -66.19279849	     -1.15528227	    -22.88625076	     18.02404495	     15.29896730	     -4.11739799	      4.89858245	     -6.62041249	     -4.69962894	     -8.10294238	    -17.04284755	     22.62255760	     89.95437384	      0.00000000	      0.00000000	     -1.34355391	     10.98919363	     15.80545694	     62.09823472	     89.95437384	      0.00000000	      0.00000000
      0.54000000	     -2.62940359	     -3.65960705	      8.39281924	     -0.16431665	      0.87970958	      1.53841675	     22.28258465	      0.35811153	    -14.93235842	    -29.68207228	     -0.51804989	      5.62836994	     -7.17104286	      6.79695470	     13.33500547	      7.76884962	      0.54876703	    -68.03766775	     -1.18748132	    -21.18778819	     18.60500210	     15.19082230	     -4.38576959	      4.75630389	     -6.01897366	     -4.14046215	     -8.16224074	    -16.74814797	     23.41639768	     89.95437384	      0.00000000	      0.00000000	     -1.59652091	     10.75744734	     15.77467112	     60.47345343	     89.95437384	      0.00000000	      0.00000000
      0.55000000	     -2.60291351	     -3.75906401	      8.08999956	     -0.15093991	      0.88163631	      1.53977208	     20.91783444	      0.88298801	    -14.69173116	    -28.91942744	     -0.50473923	      6.35839075	     -6.57361707	      6.45695861	     15.28503301	      8.01283199	      0.97575327	    -69.72864856	     -1.21699450	    -18.52587210	     18.86244248	     15.41338646	     -4.40899369	      4.80106922	     -5.33650046	     -3.80865583	     -8.28471075	    -16.34359795	     24.51487561	     89.95437384	      0.00000000	      0.00000000	     -1.75008635	     10.52130772	     15.65137632	     58.57998458	     89.95437384	      0.00000000	      0.00000000
      0.56000000	     -2.53445482	     -3.73853561	      7.68975953	     -0.13759932	      0.88352789	      1.54116554	     19.59699439	      1.33393818	    -14.23242693	    -28.29173370	     -0.49378390	      6.57890699	     -6.80192386	      5.44078218	     17.13774876	      8.13105394	      1.59453912	    -71.10748830	     -1.24105979	    -15.36784581	     18.94082043	     23.38493244	     -4.51565256	      4.68728918	     -4.61252061	     -3.47169747	     -8.38398753	    -16.01818711	     25.75856406	     89.95437384	      0.00000000	      0.00000000	     -2.04181435	     10.35533893	     15.50064073	     56.88861739	     89.95437384	      0.00000000	      0.00000000
      0.57000000	     -2.54676382	     -3.42878325	      7.33004891	     -0.12445226	      0.88547708	      1.54209328	     18.34965994	      1.36101995	    -13.79584495	    -27.72675677	     -0.48392320	      7.14698962	     -6.52320450	      5.21262598	     18.84686474	      7.72172503	      2.02812314	    -71.88565437	     -1.25464135	    -13.19149880	     19.08108860	     22.82764125	     -4.56023809	      4.28041975	     -3.99092163	     -3.00990856	     -8.45608424	    -15.78177122	     26.80979761	     89.95437384	      0.00000000	      0.00000000	     -2.26488414	     10.13435533	     15.55636948	     55.01852840	     89.95437384	      0.00000000	      0.00000000
      0.58000000	     -2.45223722	     -3.31771045	      6.83067072	     -0.11122607	      0.88733694	      1.54333191	     16.93824917	      1.76879342	    -13.05168833	    -26.95930945	     -0.47052871	      7.41860857	     -6.97837507	      4.86011667	     20.39053240	      7.76805363	      2.79083123	    -72.41029368	     -1.26379804	    -10.39672244	     19.05319224	     23.70493955	     -4.71605463	      4.09493194	     -3.16450324	     -2.73630554	     -8.57653124	    -15.53207652	     28.27473842	     89.95437384	      0.00000000	      0.00000000	     -2.53164397	      9.96620154	     15.42692101	     53.23132544	     89.95437384	      0.00000000	      0.00000000
      0.59000000	     -2.59732746	     -2.93655864	      6.39351619	     -0.09822630	      0.88895905	      1.54405088	     15.83131973	      1.60279668	    -12.81535059	    -26.38562138	     -0.46051597	      7.84279375	     -6.68175771	      4.67233253	     22.06307583	      7.28194426	      3.45212605	    -72.41603488	     -1.26389824	     -7.99267257	     19.02525772	     23.06193088	     -4.60872475	      3.60398663	     -2.52093292	     -2.31664558	     -8.67767920	    -15.29743932	     29.47080359	     89.95437384	      0.00000000	      0.00000000	     -2.81656912	      9.72707779	     15.62208915	     51.33307909	     89.95437384	      0.00000000	      0.00000000
      0.60000000	     -2.60084914	     -2.68415714	      5.86292965	     -0.08518474	      0.89056182	      1.54496604	     14.55754342	      1.62091621	    -12.52203143	    -25.77757149	     -0.44990350	      8.24669130	     -6.26060119	      4.45125296	     23.49698788	      7.08462745	      4.26803812	    -72.16041513	     -1.25943683	     -5.40007298	     18.98665096	     22.60650297	     -4.65690049	      3.27615202	     -1.76281611	     -1.99271295	     -8.80490155	    -15.07467189	     30.96623910	     89.95437384	      0.00000000	      0.00000000	     -3.11667318	      9.51340434	     15.76645330	     49.46529467	     89.95437384	      0.00000000	      0.00000000
      0.61000000	     -2.51768252	     -2.47630019	      5.26366265	     -0.07224312	      0.89222662	      1.54590725	     13.11454722	      1.66703478	    -12.29522434	    -24.98427007	     -0.43605777	      8.55924024	     -5.64299874	      4.15560921	     24.71544771	      7.06074593	      5.27914418	    -71.47539471	     -1.24748097	     -3.12063864	     18.90745845	     22.53433323	     -4.82527603	      3.00366481	     -0.94337319	     -1.64982129	     -8.97140975	    -14.77406391	     32.50166451	     89.95437384	      0.00000000	      0.00000000	     -3.42852864	      9.28972266	     15.88558835	     47.68692394	     89.95437384	      0.00000000	      0.00000000
      0.62000000	     -2.74761052	     -2.22368697	      4.88887889	     -0.05958338	      0.89317240	      1.54642170	     12.00811487	      1.52028414	    -12.42406543	    -24.12752353	     -0.42110473	      8.91277979	     -5.28172239	      3.99544485	     26.33479503	      6.73724249	      5.94424353	    -70.61042961	     -1.23238448	     -1.20537687	     18.87775251	     22.15665290	     -4.61864396	      2.64723558	     -0.37367385	     -1.24894397	     -9.11876000	    -14.46869777	     33.80069048	     89.95437384	      0.00000000	      0.00000000	     -3.77192843	      9.06212839	     16.15334989	     45.94740714	     89.95437384	      0.00000000	      0.00000000
      0.63000000	     -2.76585643	     -2.05928210	      4.42270014	     -0.04666270	      0.89418260	      1.54700179	     10.74400520	      1.48998954	    -12.39730783	    -23.50034323	     -0.41015836	      9.14751710	     -4.63196742	      3.76724855	     27.52970364	      6.65774189	      6.78847162	    -69.35592659	     -1.21048927	      0.82837688	     18.82623677	     21.83610238	     -4.62490718	      2.43089056	      0.26368875	     -0.96603722	     -9.32035666	    -14.12430305	     35.44643832	     89.95437384	      0.00000000	      0.00000000	     -4.06617409	      8.82528688	     16.46303838	     44.04733419	     89.95437384	      0.00000000	      0.00000000
      0.64000000	     -3.00752508	     -2.02041790	      4.13533458	     -0.03392036	      0.89443742	      1.54772646	      9.89403065	      1.51392342	    -12.87231494	    -23.10708254	     -0.40329467	      9.43766794	     -4.49279223	      3.64943831	     29.02949200	      6.78748856	      7.63992257	    -67.75186877	     -1.18249318	      1.50675788	     18.86946057	     21.53506280	     -4.36776553	      2.25847344	      0.54509482	     -0.36509551	     -9.36537760	    -13.94283547	     36.57603973	     89.95437384	      0.00000000	      0.00000000	     -4.85387073	      8.79033235	     16.53293746	     42.97312791	     89.95437384	      0.00000000	      0.00000000
      0.65000000	     -2.49731992	     -1.65405074	      3.51925323	     -0.02047365	      0.89588747	      1.54799877	      7.86585699	      1.24261145	    -12.92277839	    -22.08892584	     -0.38552448	      9.98677791	     -2.94571491	      3.06126185	     29.19565410	      6.58550252	      8.77260712	    -65.66080100	     -1.14599717	      3.20386467	     18.78177053	     21.76672338	     -4.98482525	      1.88954959	      1.54485954	     -0.30384318	     -9.73311428	    -13.51108250	     38.55219659	     89.95437384	      0.00000000	      0.00000000	     -4.83872350	      8.46116064	     16.91476261	     40.90757829	     89.95437384	      0.00000000	      0.00000000
      0.66000000	     -2.66174491	     -1.62140399	      3.19211885	     -0.00758261	      0.89580247	      1.54825823	      6.93385479	      1.24880003	    -13.27691919	    -21.72801456	     -0.37922539	     10.21610921	     -2.61350227	      2.84665497	     30.35752282	      6.59048225	      9.50963515	    -63.60690615	     -1.11014994	      4.19405663	     18.82356747	     21.59720315	     -4.79054628	      1.79691973	      2.02837668	      0.00679986	     -9.99694837	    -13.10717198	     40.08792223	     89.95437384	      0.00000000	      0.00000000	     -5.22676940	      8.26736263	     17.19369686	     39.27791305	     89.95437384	      0.00000000	      0.00000000
      0.67000000	     -2.47796805	     -1.51536255	      2.73716948	      0.00555193	      0.89604608	      1.54862307	      5.60500680	      1.21363845	    -13.43885867	    -21.34742040	     -0.37258277	     10.49870587	     -1.98972821	      2.48366877	     30.86163555	      6.63767479	     10.48772162	    -61.08387882	     -1.06611481	      5.25718648	     18.87025242	     21.70982813	     -5.02919003	      1.62958733	      2.64959296	      0.32389622	    -10.25215620	    -12.79785751	     41.67838604	     89.95437384	      0.00000000	      0.00000000	     -5.57623206	      8.05734133	     17.63563309	     37.78817654	     89.95437384	      0.00000000	      0.00000000
      0.68000000	     -2.41778736	     -1.48761745	      2.30505293	      0.01875035	      0.89582510	      1.54870500	      4.39509674	      1.19527034	    -13.67870257	    -20.92321499	     -0.36517899	     10.86726572	     -1.54443941	      2.15271819	     31.43686482	      6.68057897	     11.30290017	    -58.40222222	     -1.01931107	      6.10962481	     18.88226450	     21.80284045	     -5.07171272	      1.55005016	      3.20895821	      0.67435853	    -10.56195074	    -12.45471692	     43.14675765	     89.95437384	      0.00000000	      0.00000000	     -6.02557151	      7.82010184	     18.07158615	     36.40984812	     89.95437384	      0.00000000	      0.00000000
      0.69000000	     -2.62786664	     -1.66777877	      2.02909645	      0.03166744	      0.89488242	      1.54880410	      3.57211364	      1.41969169	    -13.94017088	    -20.67921917	     -0.36092046	     10.99139227	     -1.33105901	      2.00711711	     32.44754054	      6.89259762	     11.95593267	    -55.70031229	     -0.97215384	      6.69632507	     18.86699882	     21.65250436	     -4.84698069	      1.66985773	      3.54149486	      1.10053783	    -10.80814077	    -12.11286840	     44.43541731	     89.95437384	      0.00000000	      0.00000000	     -6.68907758	      7.69698579	     18.32454869	     35.40114709	     89.95437384	      0.00000000	      0.00000000
